<svg xmlns="http://www.w3.org/2000/svg" viewBox="0 0 400 400" width="100%" height="100%">
  <style>
    .stroke-main { stroke: var(--foreground); fill: none; stroke-width: 4; stroke-linecap: round; stroke-linejoin: round; }
    .stroke-accent { stroke: var(--glow-1); fill: none; stroke-width: 3.5; stroke-linecap: round; stroke-linejoin: round; }
    .stroke-muted { stroke: var(--muted); fill: none; stroke-width: 2.5; stroke-linecap: round; stroke-linejoin: round; opacity: 0.5; stroke-dasharray: 6 8; }
    .fill-bg { fill: var(--placeholder); }
  </style>
  <rect width="100%" height="100%" class="fill-bg" />
  
  <line x1="50" y1="0" x2="50" y2="400" class="stroke-muted" />
  <line x1="150" y1="0" x2="150" y2="400" class="stroke-muted" />
  <line x1="250" y1="0" x2="250" y2="400" class="stroke-muted" />
  <line x1="350" y1="0" x2="350" y2="400" class="stroke-muted" />
  <line x1="0" y1="50" x2="400" y2="50" class="stroke-muted" />
  <line x1="0" y1="150" x2="400" y2="150" class="stroke-muted" />
  <line x1="0" y1="250" x2="400" y2="250" class="stroke-muted" />
  <line x1="0" y1="350" x2="400" y2="350" class="stroke-muted" />

  <!-- Code/Browser window -->
  <rect x="80" y="120" width="240" height="180" rx="8" class="stroke-main" />
  <line x1="80" y1="160" x2="320" y2="160" class="stroke-main" />
  <circle cx="105" cy="140" r="5" class="stroke-main" />
  <circle cx="125" cy="140" r="5" class="stroke-main" />
  <circle cx="145" cy="140" r="5" class="stroke-main" />

  <!-- Code symbols inside -->
  <path d="M 120,200 L 100,215 L 120,230" class="stroke-muted" />
  <path d="M 200,200 L 220,215 L 200,230" class="stroke-muted" />
  <line x1="170" y1="200" x2="150" y2="230" class="stroke-muted" />

  <!-- Hammer / Wrench intersecting (building tools) -->
  <path d="M 230,280 L 290,220" class="stroke-accent" />
  <path d="M 275,205 L 305,235" class="stroke-accent" />
  <path d="M 285,195 Q 315,195 315,225" class="stroke-accent" />
</svg>
