<svg xmlns="http://www.w3.org/2000/svg" viewBox="0 0 400 400" width="100%" height="100%">
  <style>
    .stroke-main { stroke: var(--foreground); fill: none; stroke-width: 4; stroke-linecap: round; stroke-linejoin: round; }
    .stroke-accent { stroke: var(--glow-3); fill: none; stroke-width: 3.5; stroke-linecap: round; stroke-linejoin: round; }
    .stroke-muted { stroke: var(--muted); fill: none; stroke-width: 2.5; stroke-linecap: round; stroke-linejoin: round; opacity: 0.5; stroke-dasharray: 6 8; }
    .fill-bg { fill: var(--placeholder); }
  </style>
  <rect width="100%" height="100%" class="fill-bg" />
  
  <line x1="50" y1="0" x2="50" y2="400" class="stroke-muted" />
  <line x1="150" y1="0" x2="150" y2="400" class="stroke-muted" />
  <line x1="250" y1="0" x2="250" y2="400" class="stroke-muted" />
  <line x1="350" y1="0" x2="350" y2="400" class="stroke-muted" />
  <line x1="0" y1="50" x2="400" y2="50" class="stroke-muted" />
  <line x1="0" y1="150" x2="400" y2="150" class="stroke-muted" />
  <line x1="0" y1="250" x2="400" y2="250" class="stroke-muted" />
  <line x1="0" y1="350" x2="400" y2="350" class="stroke-muted" />

  <!-- Graph Axes -->
  <path d="M 80,100 L 80,300 L 320,300" class="stroke-main" />

  <!-- Scaling Trend Line -->
  <path d="M 80,270 L 140,240 L 200,180 L 260,190 L 320,110" class="stroke-accent" />
  
  <!-- Trend arrow -->
  <path d="M 300,110 L 320,110 L 320,130" class="stroke-accent" />

  <!-- Scaling bars/rectangles (sketchy style) -->
  <rect x="100" y="250" width="25" height="50" class="stroke-main" />
  <rect x="160" y="200" width="25" height="100" class="stroke-main" />
  <rect x="220" y="160" width="25" height="140" class="stroke-main" />
  <rect x="280" y="120" width="25" height="180" class="stroke-main" />
</svg>
